<svg width="24" height="24" xmlns="http://www.w3.org/2000/svg">

 <g>
  <title>background</title>
  <rect fill="none" id="canvas_background" height="402" width="582" y="-1" x="-1"/>
 </g>
 <g>
  <title fill="#ffffff">Layer 1</title>
  <path fill="#ffffff" id="svg_1" d="m20.59,12l-3.3,-3.3a1,1 0 1 1 1.42,-1.4l4,4a1,1 0 0 1 0,1.4l-4,4a1,1 0 0 1 -1.42,-1.4l3.3,-3.3zm-17.19,0l3.3,3.3a1,1 0 0 1 -1.42,1.4l-4,-4a1,1 0 0 1 0,-1.4l4,-4a1,1 0 0 1 1.42,1.4l-3.3,3.3zm7.56,8.24a1,1 0 0 1 -1.94,-0.48l4,-16a1,1 0 1 1 1.94,0.48l-4,16z" class="heroicon-ui"/>
 </g>
</svg>