<svg width="335" height="335" xmlns="http://www.w3.org/2000/svg">
 <title/>

 <g>
  <title>background</title>
  <rect fill="none" id="canvas_background" height="337" width="337" y="-1" x="-1"/>
 </g>
 <g>
  <title fill="#ffffff">Layer 1</title>
  <path fill="#ffffff" id="svg_1" d="m263,258.833845l-12.59,0l0,-77.24a104.21,104.21 0 0 0 -2.41,-22.46a5.59,5.59 0 1 0 -10.91,2.42a92.65,92.65 0 0 1 2.19,20l0,77.24l-19.58,0a5.59,5.59 0 1 0 0,11.17l37.74,0l0,27.79l-220.38,0l0,-27.75l120.48,0a5.59,5.59 0 0 0 0,-11.17l-126.07,0a5.58,5.58 0 0 0 -5.58,5.58l0,38.91a5.58,5.58 0 0 0 5.58,5.58l231.53,0a5.58,5.58 0 0 0 5.59,-5.58l0,-38.91a5.58,5.58 0 0 0 -5.59,-5.58z"/>
  <path fill="#ffffff" id="svg_2" d="m190,270.003845a5.59,5.59 0 1 0 0,-11.17l-1.37,0a5.59,5.59 0 1 0 0,11.17l1.37,0z"/>
  <path fill="#ffffff" id="svg_3" d="m44.09,181.593845l0,56.93a5.59,5.59 0 1 0 11.17,0l0,-56.93a92.07,92.07 0 0 1 117.14,-88.51a5.59,5.59 0 1 0 3,-10.75a103.25,103.25 0 0 0 -131.31,99.26z"/>
  <path fill="#ffffff" id="svg_8" d="m274.8,40.883845a5.59,5.59 0 0 0 -7.9,7.9l34,34l-14.38,14.38l-42.55,-42.55l0,0l-9.13,-9.13l14.38,-14.38l3.51,3.51a5.59,5.59 0 0 0 7.9,-7.9l-7.46,-7.46a5.59,5.59 0 0 0 -7.9,0l-22.27,22.25a5.58,5.58 0 0 0 0,7.9l9.13,9.13l-51.47,51.46c-2.62,-1.75 -5,-3.2 -7,-4.29a5.59,5.59 0 0 0 -5.37,9.8c12.87,7.05 39.61,28.47 46.13,48.36a5.59,5.59 0 0 0 10.58,-3.48a54.72,54.72 0 0 0 -3.66,-8.47l39.74,-39.74a5.59,5.59 0 0 0 -7.9,-7.9l-38,38c-7.26,-9.87 -16.79,-18.79 -25.46,-25.58l50.28,-50.26l42.55,42.55a5.58,5.58 0 0 0 7.9,0l22.27,-22.23a5.58,5.58 0 0 0 0,-7.9l-37.92,-37.97z"/>
 </g>
</svg>